<svg width="86" height="86" viewBox="0 0 86 86" fill="none" xmlns="http://www.w3.org/2000/svg">
<g clip-path="url(#clip0)">
<path d="M45.2063 79.7178V80.6522H46.1407H64.7415H65.6759V79.7178V65.5457V64.6113H64.7415H46.1407H45.2063V65.5457V79.7178ZM67.3988 84.0979H43.4834C42.5327 84.0979 41.7606 83.3258 41.7606 82.375V62.8885C41.7606 61.9377 42.5327 61.1656 43.4834 61.1656H67.3988C68.3495 61.1656 69.1216 61.9377 69.1216 62.8885V82.375C69.1216 83.3258 68.3495 84.0979 67.3988 84.0979Z" fill="#BDDB3C" stroke="white" stroke-width="1.86884"/>
<path d="M33.6919 60.2312V61.1656H34.6263H52.3413H53.2758V60.2312V44.2877V43.3532H52.3413H34.6263H33.6919V44.2877V60.2312ZM54.9986 64.6113H31.969C31.0183 64.6113 30.2462 63.8392 30.2462 62.8885V41.6304C30.2462 40.6797 31.0183 39.9076 31.969 39.9076H54.9986C55.9493 39.9076 56.7214 40.6797 56.7214 41.6304V62.8885C56.7214 63.8392 55.9493 64.6113 54.9986 64.6113Z" fill="#BDDB3C" stroke="white" stroke-width="1.86884"/>
<path d="M21.2913 79.7178V80.6522H22.2257H40.8265H41.7609V79.7178V65.5457V64.6113H40.8265H22.2257H21.2913V65.5457V79.7178ZM43.4838 84.0979H19.5685C18.6177 84.0979 17.8456 83.3258 17.8456 82.375V62.8885C17.8456 61.9377 18.6177 61.1656 19.5685 61.1656H43.4838C44.4345 61.1656 45.2066 61.9377 45.2066 62.8885V82.375C45.2066 83.3258 44.4345 84.0979 43.4838 84.0979Z" fill="#BDDB3C" stroke="white" stroke-width="1.86884"/>
<path d="M43.4834 48.6678C42.5327 48.6678 41.7606 47.8957 41.7606 46.9449V41.6304C41.7606 40.6797 42.5327 39.9076 43.4834 39.9076C44.4342 39.9076 45.2063 40.6797 45.2063 41.6304V46.9449C45.2063 47.8957 44.4342 48.6678 43.4834 48.6678Z" fill="#BDDB3C" stroke="white" stroke-width="1.86884"/>
<path d="M31.969 69.9258C31.0183 69.9258 30.2462 69.1537 30.2462 68.203V62.8885C30.2462 61.9377 31.0183 61.1656 31.969 61.1656C32.9198 61.1656 33.6919 61.9377 33.6919 62.8885V68.203C33.6919 69.1537 32.9198 69.9258 31.969 69.9258Z" fill="#BDDB3C" stroke="white" stroke-width="1.86884"/>
<path d="M54.9989 69.9258C54.0481 69.9258 53.276 69.1537 53.276 68.203V62.8885C53.276 61.9377 54.0481 61.1656 54.9989 61.1656C55.9496 61.1656 56.7217 61.9377 56.7217 62.8885V68.203C56.7217 69.1537 55.9496 69.9258 54.9989 69.9258Z" fill="#BDDB3C" stroke="white" stroke-width="1.86884"/>
<path d="M42.5082 1.23618L42.5095 1.23527C43.0968 0.829254 43.8746 0.829255 44.4618 1.23527L44.4631 1.23618L84.3198 28.693C84.7852 29.0155 85.0656 29.5478 85.0656 30.1146V78.831C85.0656 81.7339 82.7027 84.0968 79.7998 84.0968H7.16804C4.2651 84.0968 1.90219 81.7339 1.90219 78.831V30.1146C1.90219 29.5484 2.18199 29.017 2.64935 28.6945C2.64949 28.6944 2.64962 28.6943 2.64975 28.6942L42.5082 1.23618ZM5.7522 30.741L5.34787 31.0195V31.5105V78.831C5.34787 79.836 6.16304 80.6512 7.16804 80.6512H79.7998C80.8048 80.6512 81.6199 79.836 81.6199 78.831V31.5105V31.0195L81.2156 30.741L44.014 5.11442L43.4839 4.74927L42.9538 5.11442L5.7522 30.741Z" fill="#BDDB3C" stroke="white" stroke-width="1.86884"/>
<rect x="44.2689" y="73.7825" width="9.38093" height="1.56838" transform="rotate(90 44.2689 73.7825)" fill="#BDDB3C"/>
<rect x="20.3383" y="73.7825" width="9.38093" height="1.56838" transform="rotate(90 20.3383 73.7825)" fill="#BDDB3C"/>
<rect x="68.1985" y="73.7825" width="9.38093" height="1.56838" transform="rotate(90 68.1985 73.7825)" fill="#BDDB3C"/>
<rect x="55.7833" y="55.5408" width="9.38093" height="1.56838" transform="rotate(90 55.7833 55.5408)" fill="#BDDB3C"/>
<rect x="32.7524" y="55.5408" width="9.38093" height="1.56838" transform="rotate(90 32.7524 55.5408)" fill="#BDDB3C"/>
<rect x="37.4431" y="63.6626" width="9.38093" height="1.56838" transform="rotate(-180 37.4431 63.6626)" fill="#BDDB3C"/>
<rect x="59.6886" y="63.6626" width="20.6988" height="1.56838" transform="rotate(-180 59.6886 63.6626)" fill="#BDDB3C"/>
<rect x="52.3416" y="42.4124" width="13.3521" height="1.56838" transform="rotate(-180 52.3416 42.4124)" fill="#BDDB3C"/>
</g>
<defs>
<clipPath id="clip0">
<rect width="85.0323" height="85.0323" fill="white" transform="translate(0.967773)"/>
</clipPath>
</defs>
</svg>
