<svg width="83" height="84" viewBox="0 0 83 84" fill="none" xmlns="http://www.w3.org/2000/svg">
<g clip-path="url(#clip0)">
<path d="M40.1885 2.15573L40.1898 2.15482C40.7471 1.76948 41.4853 1.76948 42.0427 2.15482L42.044 2.15573L80.5866 28.7073C80.5867 28.7074 80.5868 28.7075 80.5869 28.7075C81.0285 29.0137 81.2946 29.5189 81.2946 30.0567V77.1671C81.2946 79.9573 79.0234 82.2285 76.2331 82.2285H5.99586C3.20564 82.2285 0.934421 79.9573 0.934421 77.1671V30.0567C0.934421 29.5194 1.19997 29.015 1.64362 28.7088C1.64375 28.7088 1.64389 28.7087 1.64402 28.7086L40.1885 2.15573ZM4.60923 30.6371L4.20489 30.9157V31.4067V77.1671C4.20489 78.156 5.00698 78.9581 5.99586 78.9581H76.2331C77.222 78.9581 78.0241 78.156 78.0241 77.1671V31.4067V30.9157L77.6198 30.6371L41.6446 5.85538L41.1145 5.49023L40.5844 5.85538L4.60923 30.6371Z" fill="#BDDB3C" stroke="white" stroke-width="1.86884"/>
<path d="M21.3361 78.0239V78.9584H22.2705H59.9588H60.8932V78.0239V43.7619V42.8274H59.9588H22.2705H21.3361V43.7619V78.0239ZM62.5284 82.2288H19.7008C18.7984 82.2288 18.0656 81.496 18.0656 80.5936V41.1922C18.0656 40.2898 18.7984 39.557 19.7008 39.557H62.5284C63.4308 39.557 64.1637 40.2898 64.1637 41.1922V80.5936C64.1637 81.496 63.4308 82.2288 62.5284 82.2288Z" fill="#BDDB3C" stroke="white" stroke-width="1.86884"/>
<path d="M62.5284 54.8196H19.7008C18.7984 54.8196 18.0656 54.0868 18.0656 53.1844C18.0656 52.282 18.7984 51.5492 19.7008 51.5492H62.5284C63.4308 51.5492 64.1637 52.282 64.1637 53.1844C64.1637 54.0868 63.4308 54.8196 62.5284 54.8196Z" fill="#BDDB3C" stroke="white" stroke-width="1.86884"/>
<path d="M62.5284 68.5242H19.7008C18.7984 68.5242 18.0656 67.7914 18.0656 66.889C18.0656 65.9866 18.7984 65.2538 19.7008 65.2538H62.5284C63.4308 65.2538 64.1637 65.9866 64.1637 66.889C64.1637 67.7914 63.4308 68.5242 62.5284 68.5242Z" fill="#BDDB3C" stroke="white" stroke-width="1.86884"/>
<rect x="63.2265" y="48.4941" width="23.9411" height="1.39433" transform="rotate(90 63.2265 48.4941)" fill="#BDDB3C"/>
<rect x="20.3915" y="48.4941" width="23.9411" height="1.39433" transform="rotate(90 20.3915 48.4941)" fill="#BDDB3C"/>
<rect x="70.4246" y="81.2861" width="58.7409" height="1.39433" transform="rotate(-180 70.4246 81.2861)" fill="#BDDB3C"/>
</g>
<defs>
<clipPath id="clip0">
<rect width="82.229" height="82.229" fill="white" transform="translate(0 0.93457)"/>
</clipPath>
</defs>
</svg>
