<svg width="87" height="74" viewBox="0 0 87 74" fill="none" xmlns="http://www.w3.org/2000/svg">
<g clip-path="url(#clip0)">
<path d="M73.4269 69.0538H74.4814V67.9992V21.85H78.028V68.9471C78.028 70.9836 76.3803 72.6319 74.3696 72.6319H12.725C10.7142 72.6319 9.06662 70.9835 9.06662 68.9471V21.85H12.6129V67.9992V69.0538H13.6674H73.4269Z" fill="#BDDB3C" stroke="white" stroke-width="2.10909"/>
<path d="M81.3445 19.0063H82.399V17.9518V5.81908V4.76454H81.3445H5.65551H4.60096V5.81908V17.9518V19.0063H5.65551H81.3445ZM2.82767 1.18638H84.1723C85.1461 1.18638 85.9454 1.98165 85.9453 2.97543V20.7955C85.9453 21.7892 85.1461 22.5845 84.1722 22.5845H2.82767C1.85384 22.5845 1.05455 21.7893 1.05455 20.7955V2.97554C1.05455 1.98165 1.85392 1.18638 2.82767 1.18638Z" fill="#BDDB3C" stroke="white" stroke-width="2.10909"/>
<path d="M30.9163 34.5514H56.1774C57.1511 34.5514 57.9505 35.3467 57.9505 36.3404C57.9505 37.3349 57.1515 38.1294 56.1774 38.1294H30.9163C29.9424 38.1294 29.1431 37.3342 29.1431 36.3404C29.1431 35.3466 29.9423 34.5514 30.9163 34.5514Z" fill="#BDDB3C" stroke="white" stroke-width="2.10909"/>
<rect x="76.9935" y="20.5593" width="8.82241" height="1.47501" transform="rotate(90 76.9935 20.5593)" fill="#BDDB3C"/>
<rect x="11.5856" y="20.5593" width="8.82241" height="1.47501" transform="rotate(90 11.5856 20.5593)" fill="#BDDB3C"/>
</g>
<defs>
<clipPath id="clip0">
<rect width="87" height="73.8182" fill="white"/>
</clipPath>
</defs>
</svg>
