<svg width="18" height="18" viewBox="0 0 18 18" fill="none" xmlns="http://www.w3.org/2000/svg">
<g clip-path="url(#clip0)">
<path d="M9.75007 8.56624L9.75021 8.56617L17.1228 3.65105C16.8687 3.24747 16.4194 2.97953 15.9102 2.97953H2.3277C1.81846 2.97953 1.36919 3.24747 1.11501 3.65105L8.50648 8.57867L9.75007 8.56624ZM9.75007 8.56624L9.72765 8.58119C9.59131 8.67208 9.37041 8.73458 9.11896 8.73458C8.8683 8.73458 8.64803 8.67248 8.51164 8.58209L9.75007 8.56624ZM8.4461 8.54584C8.44024 8.54323 8.44631 8.54558 8.45834 8.5515C8.45215 8.54851 8.44781 8.5466 8.4461 8.54584Z" fill="#202020" stroke="#202020" stroke-width="0.865678"/>
<path d="M17.3435 5.76366V13.6479C17.3435 14.4374 16.7005 15.0805 15.9109 15.0805H2.32836C1.53875 15.0805 0.89573 14.4374 0.89573 13.6479V5.76366L7.46792 10.1451L7.46918 10.1459C7.46916 10.1459 7.47009 10.1465 7.47181 10.1477C7.47116 10.1472 7.4705 10.1468 7.46985 10.1464M17.3435 5.76366V5.24346L10.5313 9.78491L10.5311 9.78508M17.3435 5.76366L10.7741 10.1433M17.3435 5.76366L10.7741 10.1433M7.46985 10.1464L7.47003 10.1465L7.47254 10.1481L7.48202 10.1541C7.47753 10.1514 7.47404 10.1491 7.47184 10.1477C7.4784 10.152 7.48498 10.1564 7.49158 10.1607M7.46985 10.1464L7.46939 10.1461L7.46923 10.146L7.49034 10.16L7.49158 10.1607M7.46985 10.1464C7.46925 10.146 7.46866 10.1456 7.46806 10.1452L7.7073 9.78636L7.70818 9.78504M7.49158 10.1607L7.51142 10.1706C7.51247 10.1711 7.51353 10.1716 7.51461 10.1722L7.70818 9.78504M7.49158 10.1607C7.96666 10.4695 8.55182 10.6136 9.11961 10.6136C9.69567 10.6136 10.2899 10.4652 10.7687 10.1469M7.70818 9.78504C8.10392 10.0489 8.6117 10.1808 9.11961 10.1808C9.62742 10.1808 10.1354 10.0489 10.5311 9.78508M7.70818 9.78504L10.7687 10.1469M10.7687 10.1469C10.7695 10.1463 10.7703 10.1458 10.7712 10.1452L10.6065 9.89819L10.6065 9.89812L10.5311 9.78508M10.7687 10.1469C10.7578 10.154 10.7429 10.1631 10.7247 10.1722L10.5311 9.78508M10.7741 10.1433C10.776 10.142 10.7778 10.1407 10.7794 10.1396C10.7891 10.1329 10.7965 10.127 10.7976 10.1261C10.7964 10.1271 10.7943 10.1287 10.7925 10.1301C10.7878 10.1336 10.7806 10.1389 10.7714 10.1451L10.7741 10.1433Z" fill="#202020" stroke="#202020" stroke-width="0.865678"/>
</g>
<defs>
<clipPath id="clip0">
<rect width="17.3134" height="17.3134" fill="white" transform="translate(0.462891 0.373169)"/>
</clipPath>
</defs>
</svg>
