<svg width="27" height="27" viewBox="0 0 27 27" fill="none" xmlns="http://www.w3.org/2000/svg">
<g clip-path="url(#clip0)">
<path d="M11.0181 11.2922C11.3074 11.5856 11.7761 11.5856 12.0653 11.2922L13.2145 10.1259V14.4111C13.2145 14.8261 13.5459 15.1625 13.9549 15.1625C14.3638 15.1625 14.6953 14.8261 14.6953 14.4111V10.1259L15.8449 11.2926C15.9895 11.4393 16.1789 11.5126 16.3684 11.5126C16.5579 11.5126 16.7473 11.4393 16.8919 11.2926C17.1811 10.9991 17.1811 10.5234 16.8919 10.2299L14.4784 7.78051C14.1892 7.48704 13.7205 7.48704 13.4313 7.78051L11.0181 10.2295C10.729 10.523 10.729 10.9987 11.0181 11.2922Z" fill="#BDDB3C"/>
<path d="M25.4409 11.8393L14.4785 0.713806C14.1892 0.420341 13.7206 0.420341 13.4313 0.713806L2.46881 11.8393C2.32994 11.9803 2.25195 12.1714 2.25195 12.3707V26.1564C2.25195 26.5714 2.5834 26.9078 2.99235 26.9078H24.9174C25.3263 26.9078 25.6578 26.5714 25.6578 26.1564V12.3707C25.6578 12.1714 25.5798 11.9802 25.4409 11.8393ZM3.73282 14.2794L9.59477 20.2285L3.73282 24.6598V14.2794ZM10.9697 21.063L16.9405 21.0632L22.684 25.4049H5.22579L10.9697 21.063ZM18.3151 20.2285L24.177 14.2794V24.6598L18.3151 20.2285ZM13.9549 2.30778L23.917 12.418L16.8792 19.5605L11.0304 19.5603L3.99278 12.4181L13.9549 2.30778Z" fill="#BDDB3C"/>
</g>
<defs>
<clipPath id="clip0">
<rect width="26.0271" height="26.4141" fill="white" transform="translate(0.941406 0.493729)"/>
</clipPath>
</defs>
</svg>
