<svg width="27" height="27" viewBox="0 0 27 27" fill="none" xmlns="http://www.w3.org/2000/svg">
<g clip-path="url(#clip0)">
<path d="M26.6982 20.7403C26.6246 20.5162 26.1562 20.1862 25.2934 19.751C25.0597 19.6138 24.7267 19.4274 24.2957 19.1909C23.8644 18.9544 23.4729 18.7364 23.1219 18.5373C22.7702 18.3382 22.4407 18.1453 22.1329 17.9589C22.0837 17.9215 21.9297 17.8128 21.6709 17.6319C21.4118 17.4516 21.1934 17.3177 21.0144 17.2304C20.8357 17.1437 20.66 17.1 20.4875 17.1C20.2411 17.1 19.9333 17.2775 19.5637 17.6319C19.1941 17.9868 18.8551 18.3724 18.5472 18.7897C18.2392 19.2068 17.9126 19.5923 17.5679 19.947C17.2227 20.3019 16.939 20.4792 16.7175 20.4792C16.6062 20.4792 16.4676 20.4478 16.3014 20.3861C16.1352 20.3239 16.0089 20.2706 15.9221 20.2276C15.8361 20.1837 15.6886 20.0969 15.4789 19.9658C15.2689 19.8351 15.1521 19.7635 15.1275 19.751C13.4393 18.8049 11.9914 17.7221 10.7836 16.5028C9.57618 15.2828 8.50388 13.8207 7.56736 12.1155C7.55506 12.0906 7.48403 11.9723 7.35474 11.7608C7.22525 11.5492 7.13894 11.4 7.09582 11.3127C7.0527 11.2256 7.00033 11.098 6.93882 10.93C6.87731 10.762 6.84643 10.6221 6.84643 10.51C6.84643 10.2861 7.02208 9.99967 7.37332 9.65116C7.72449 9.30284 8.10661 8.97289 8.51929 8.66197C8.9323 8.35105 9.31403 8.00868 9.66533 7.63545C10.0165 7.26202 10.1921 6.95104 10.1921 6.70217C10.1921 6.52805 10.149 6.35052 10.0628 6.17011C9.97656 5.98932 9.84409 5.7687 9.66533 5.50721C9.48651 5.24586 9.37871 5.09043 9.34167 5.04041C9.15702 4.72949 8.96622 4.3966 8.76882 4.04188C8.57141 3.68721 8.35594 3.29188 8.1217 2.85633C7.88765 2.42098 7.70293 2.08482 7.56723 1.84838C7.13616 0.977351 6.80965 0.504206 6.58778 0.429795C6.50147 0.392458 6.37198 0.373627 6.19963 0.373627C5.86672 0.373627 5.43241 0.435745 4.8964 0.560374C4.36018 0.684807 3.93824 0.815321 3.63013 0.952438C3.01395 1.21366 2.36088 1.97281 1.6707 3.22963C1.04223 4.39928 0.728027 5.55697 0.728027 6.70185C0.728027 7.03761 0.749587 7.36429 0.792707 7.68194C0.835827 7.99927 0.912872 8.35714 1.02391 8.75548C1.13475 9.15369 1.22416 9.4495 1.29176 9.64213C1.35941 9.8349 1.48573 10.1802 1.67064 10.6782C1.85529 11.1761 1.96633 11.4808 2.0033 11.5928C2.43456 12.8126 2.94597 13.9015 3.53741 14.8599C4.51052 16.4529 5.83849 18.0991 7.52055 19.798C9.20267 21.4968 10.8324 22.8379 12.4098 23.8211C13.3587 24.4183 14.4372 24.9347 15.6448 25.3706C15.7558 25.4078 16.0575 25.5196 16.5503 25.7068C17.0433 25.8934 17.3853 26.021 17.5762 26.0894C17.7671 26.158 18.0601 26.2483 18.454 26.3605C18.8489 26.4726 19.2029 26.5504 19.5171 26.5943C19.8315 26.6372 20.155 26.6594 20.4875 26.6594C21.6211 26.6594 22.7674 26.3419 23.9258 25.7072C25.1701 25.0105 25.9216 24.3508 26.1804 23.728C26.3165 23.4172 26.4454 22.9909 26.5686 22.4494C26.6922 21.9081 26.7536 21.4695 26.7536 21.1334C26.7539 20.9586 26.7354 20.8281 26.6982 20.7403Z" fill="#202020"/>
</g>
<defs>
<clipPath id="clip0">
<rect width="26.0271" height="26.2857" fill="white" transform="translate(0.727539 0.373627)"/>
</clipPath>
</defs>
</svg>
