<svg width="18" height="18" viewBox="0 0 18 18" fill="none" xmlns="http://www.w3.org/2000/svg">
<path d="M8.17444 1.03771C8.52831 0.468429 9.35683 0.46843 9.71069 1.03771L12.0808 4.85063C12.2053 5.05091 12.4031 5.19465 12.6321 5.2512L16.9903 6.32768C17.6409 6.48838 17.8969 7.27611 17.465 7.78856L14.5715 11.222C14.4196 11.4023 14.3441 11.6347 14.361 11.8699L14.6842 16.3485C14.7325 17.017 14.0623 17.5039 13.4414 17.2514L9.28332 15.5602C9.06484 15.4713 8.82029 15.4713 8.60181 15.5602L4.44373 17.2514C3.82288 17.5039 3.15265 17.017 3.20089 16.3485L3.5241 11.8699C3.54107 11.6347 3.46554 11.4023 3.3136 11.222L0.420139 7.78856C-0.01172 7.27611 0.244257 6.48838 0.894857 6.32768L5.25305 5.2512C5.482 5.19465 5.6798 5.05091 5.8043 4.85063L8.17444 1.03771Z" fill="white"/>
</svg>
