<svg width="67" height="66" viewBox="0 0 67 66" fill="none" xmlns="http://www.w3.org/2000/svg">
<g filter="url(#filter0_d)">
<ellipse cx="30.5765" cy="30" rx="25.0131" ry="25" fill="#C4C4C4"/>
<path d="M30.5765 57C45.4945 57 57.5896 44.9127 57.5896 30C57.5896 15.0873 45.4945 3 30.5765 3C15.6586 3 3.56348 15.0873 3.56348 30C3.56348 44.9127 15.6586 57 30.5765 57Z" stroke="white" stroke-width="4"/>
</g>
<path d="M51.5896 30C51.5896 41.596 42.1837 51 30.5765 51C18.9694 51 9.56348 41.596 9.56348 30C9.56348 18.404 18.9694 9 30.5765 9C42.1837 9 51.5896 18.404 51.5896 30Z" fill="#202020" stroke="#BDDB3C" stroke-width="8"/>
<path d="M31.0768 23C28.0798 23 25.6416 25.437 25.6416 28.4324C25.6416 32.1498 30.5056 37.6072 30.7127 37.8377C30.9072 38.0543 31.2468 38.0539 31.441 37.8377C31.648 37.6072 36.512 32.1498 36.512 28.4324C36.512 25.437 34.0738 23 31.0768 23ZM31.0768 31.1656C29.569 31.1656 28.3423 29.9395 28.3423 28.4324C28.3423 26.9253 29.569 25.6992 31.0768 25.6992C32.5847 25.6992 33.8114 26.9253 33.8114 28.4324C33.8114 29.9395 32.5847 31.1656 31.0768 31.1656Z" fill="white"/>
<defs>
<filter id="filter0_d" x="0.563477" y="0" width="66.0261" height="66" filterUnits="userSpaceOnUse" color-interpolation-filters="sRGB">
<feFlood flood-opacity="0" result="BackgroundImageFix"/>
<feColorMatrix in="SourceAlpha" type="matrix" values="0 0 0 0 0 0 0 0 0 0 0 0 0 0 0 0 0 0 127 0"/>
<feOffset dx="3" dy="3"/>
<feGaussianBlur stdDeviation="2"/>
<feColorMatrix type="matrix" values="0 0 0 0 0 0 0 0 0 0 0 0 0 0 0 0 0 0 0.25 0"/>
<feBlend mode="normal" in2="BackgroundImageFix" result="effect1_dropShadow"/>
<feBlend mode="normal" in="SourceGraphic" in2="effect1_dropShadow" result="shape"/>
</filter>
</defs>
</svg>
