<svg width="21" height="20" viewBox="0 0 21 20" fill="none" xmlns="http://www.w3.org/2000/svg">
<path fill-rule="evenodd" clip-rule="evenodd" d="M0 1C0 0.447715 0.447715 0 1 0H20C20.5523 0 21 0.447715 21 1C21 1.55228 20.5523 2 20 2H1C0.447715 2 0 1.55228 0 1ZM0 10C0 9.44771 0.447715 9 1 9H20C20.5523 9 21 9.44771 21 10C21 10.5523 20.5523 11 20 11H1C0.447715 11 0 10.5523 0 10ZM1 18C0.447715 18 0 18.4477 0 19C0 19.5523 0.447715 20 1 20H20C20.5523 20 21 19.5523 21 19C21 18.4477 20.5523 18 20 18H1Z" fill="#202020"/>
</svg>
