<svg width="24" height="31" viewBox="0 0 24 31" fill="none" xmlns="http://www.w3.org/2000/svg">
<path d="M23.5893 7.67411L23.5893 7.67414C23.7178 7.80051 23.8 7.98244 23.8 8.17383V28.2754C23.8 29.6642 22.6503 30.8 21.2308 30.8H2.76923C1.34966 30.8 0.2 29.6642 0.2 28.2754V2.72461C0.2 1.33577 1.34966 0.2 2.76923 0.2H15.6923C15.8853 0.2 16.0701 0.276041 16.2048 0.408644L16.2048 0.408669L23.5893 7.67411ZM16.7557 2.95822L16.4154 2.62344V3.10079V6.35742C16.4154 6.97171 16.9221 7.46562 17.5385 7.46562H20.8484H21.3369L20.9887 7.12306L16.7557 2.95822ZM14.9692 1.81641V1.61641H14.7692H2.76923C2.15286 1.61641 1.64615 2.11032 1.64615 2.72461V28.2754C1.64615 28.8897 2.15286 29.3836 2.76923 29.3836H21.2308C21.8471 29.3836 22.3538 28.8897 22.3538 28.2754V9.08203V8.88203H22.1538H17.5385C16.1189 8.88203 14.9692 7.74626 14.9692 6.35742V1.81641Z" fill="#202020" stroke="white" stroke-width="0.4"/>
<path d="M6.46116 13.0359H17.5381C17.9405 13.0359 18.2612 13.3561 18.2612 13.7441C18.2612 14.1322 17.9405 14.4523 17.5381 14.4523H6.46116C6.05876 14.4523 5.73809 14.1322 5.73809 13.7441C5.73809 13.3561 6.05876 13.0359 6.46116 13.0359Z" fill="#202020" stroke="white" stroke-width="0.4"/>
<path d="M6.46116 16.6688H17.5381C17.9405 16.6688 18.2612 16.9889 18.2612 17.377C18.2612 17.765 17.9405 18.0852 17.5381 18.0852H6.46116C6.05876 18.0852 5.73809 17.765 5.73809 17.377C5.73809 16.9889 6.05876 16.6688 6.46116 16.6688Z" fill="#202020" stroke="white" stroke-width="0.4"/>
<path d="M6.46116 20.3016H17.5381C17.9405 20.3016 18.2612 20.6217 18.2612 21.0098C18.2612 21.3978 17.9405 21.718 17.5381 21.718H6.46116C6.05876 21.718 5.73809 21.3978 5.73809 21.0098C5.73809 20.6217 6.05876 20.3016 6.46116 20.3016Z" fill="#202020" stroke="white" stroke-width="0.4"/>
<path d="M6.46116 23.9344H13.8458C14.2482 23.9344 14.5689 24.2545 14.5689 24.6426C14.5689 25.0306 14.2482 25.3508 13.8458 25.3508H6.46116C6.05876 25.3508 5.73809 25.0306 5.73809 24.6426C5.73809 24.2545 6.05876 23.9344 6.46116 23.9344Z" fill="#202020" stroke="white" stroke-width="0.4"/>
</svg>
