<svg width="21" height="21" viewBox="0 0 21 21" fill="none" xmlns="http://www.w3.org/2000/svg">
<g clip-path="url(#clip0)">
<path d="M10.8067 19.6001L10.8067 19.6001L10.8073 19.5996L10.8103 19.5971L10.8235 19.5862C10.8355 19.5762 10.8537 19.5609 10.8777 19.5405C10.9257 19.4996 10.997 19.4383 11.0883 19.3577C11.2708 19.1964 11.5328 18.9582 11.8479 18.6532C12.4786 18.0427 13.3191 17.167 14.1585 16.1065C15.85 13.9697 17.4817 11.1522 17.4817 8.27575C17.4817 4.33989 14.2911 1.14927 10.3553 1.14927C6.41944 1.14927 3.22881 4.33989 3.22873 8.27575L10.8067 19.6001ZM10.8067 19.6001C10.567 19.7967 10.1435 19.7967 9.90378 19.6001L9.90377 19.6001L9.90322 19.5996L9.90021 19.5971L9.88699 19.5862C9.87502 19.5762 9.85682 19.5609 9.8328 19.5405C9.78476 19.4996 9.71346 19.4383 9.62223 19.3577C9.43973 19.1964 9.17767 18.9582 8.86258 18.6532C8.23188 18.0427 7.39142 17.167 6.55194 16.1065C4.86048 13.9697 3.22874 11.1522 3.22873 8.27576L10.8067 19.6001Z" fill="#202020" stroke="#202020" stroke-width="0.865672"/>
<path d="M10.3559 12.0788C8.25876 12.0788 6.55273 10.3727 6.55273 8.27573C6.55273 6.17871 8.25884 4.47253 10.3559 4.47253C12.4529 4.47253 14.159 6.17864 14.159 8.27565C14.159 10.3727 12.4529 12.0788 10.3559 12.0788Z" fill="#FAFAFF"/>
</g>
<defs>
<clipPath id="clip0">
<rect width="19.4639" height="19.4639" fill="white" transform="translate(0.623047 0.716431)"/>
</clipPath>
</defs>
</svg>
