<svg width="43" height="43" viewBox="0 0 43 43" fill="none" xmlns="http://www.w3.org/2000/svg">
<circle cx="21.5" cy="21.5" r="21.5" fill="#BDDB3C"/>
<g clip-path="url(#clip0)">
<path d="M16.1223 27.396V27.3706L16.1017 27.3556C15.7496 27.0992 15.4149 26.8141 15.1011 26.5003C11.8481 23.2441 11.8481 17.9461 15.1008 14.6902C17.192 12.5993 19.7871 11.1973 22.8156 10.523C25.1942 9.99331 27.8692 9.90782 30.7665 10.27C31.0401 10.3042 31.2628 10.5065 31.3229 10.7756C31.3831 11.0447 31.2677 11.3226 31.0348 11.47C29.623 12.3631 28.9707 13.4487 28.7058 14.6798C28.442 15.9052 28.5626 17.2735 28.6911 18.7313L28.6916 18.7365C28.7026 18.8609 28.7149 18.9915 28.7278 19.1275C28.9142 21.0925 29.2091 24.2024 26.9111 26.5003L26.9111 26.5003C25.3364 28.0766 23.2399 28.9447 21.0075 28.9447C19.7753 28.9447 18.5845 28.6797 17.4995 28.1777L17.4285 28.1448V28.2231V33.2969C17.4285 33.6576 17.1361 33.95 16.7754 33.95C16.4147 33.95 16.1223 33.6576 16.1223 33.2969V27.396ZM16.0246 15.6136L16.0246 15.6137C13.245 18.3961 13.2885 22.9312 16.1108 25.6607L16.186 25.7335L16.1954 25.6293C16.5527 21.649 18.2224 17.9247 20.9884 15.0051C22.3992 13.5159 24.0147 12.3282 25.6857 11.5141L25.6599 11.4193C21.7403 11.7262 18.5106 13.1282 16.0246 15.6136ZM17.4405 26.6427L17.4394 26.6726L17.4652 26.6877C18.5289 27.3076 19.7425 27.6385 21.0074 27.6385C22.8904 27.6385 24.659 26.9063 25.9871 25.5769C27.8216 23.7426 27.6112 21.3564 27.3912 18.8615L27.3903 18.8513C27.2578 17.3481 27.122 15.8032 27.4418 14.3569C27.6446 13.4399 28.016 12.6373 28.5638 11.9358L28.6537 11.8207L28.5122 11.8565C27.7639 12.0458 27.002 12.3272 26.2472 12.6957C24.6991 13.4514 23.2087 14.5606 21.9367 15.9034C19.168 18.8259 17.5851 22.6196 17.4405 26.6427Z" fill="white" stroke="#BDDB3C" stroke-width="0.1"/>
</g>
<defs>
<clipPath id="clip0">
<rect width="24" height="24" fill="white" transform="translate(10 10)"/>
</clipPath>
</defs>
</svg>
