<svg width="43" height="43" viewBox="0 0 43 43" fill="none" xmlns="http://www.w3.org/2000/svg">
<circle cx="21.5" cy="21.5" r="21.5" fill="#9FACC4"/>
<g clip-path="url(#clip0)">
<path d="M26.5337 16.466L26.5337 16.4661L26.5352 16.4676C27.8488 17.7436 28.6379 19.5461 28.6379 21.5003C28.6379 23.4527 27.8117 25.2565 26.5337 26.5345L26.5322 26.5361C25.2561 27.8497 23.4536 28.6388 21.4994 28.6388C19.5471 28.6388 17.7432 27.8126 16.4652 26.5345C15.1872 25.2565 14.3609 23.4527 14.3609 21.5003C14.3609 19.5479 15.1872 17.7441 16.4652 16.466L16.4652 16.4661L16.4667 16.4645C17.7428 15.1509 19.5453 14.3618 21.4994 14.3618C23.4518 14.3618 25.2557 15.188 26.5337 16.466ZM21.4994 26.944C22.9968 26.944 24.3776 26.3529 25.3648 25.3657C26.3521 24.3785 26.9432 22.9977 26.9432 21.5003C26.9432 20.0029 26.3521 18.6221 25.3648 17.6349C24.3776 16.6477 22.9968 16.0565 21.4994 16.0565C20.0021 16.0565 18.6213 16.6477 17.634 17.6349C16.6468 18.6221 16.0557 20.0029 16.0557 21.5003C16.0557 22.9977 16.6468 24.3785 17.634 25.3657C18.6213 26.3529 20.0021 26.944 21.4994 26.944Z" fill="white" stroke="#9FACC4" stroke-width="0.3"/>
<path d="M32.0491 20.6528H35.0029C35.4571 20.6528 35.8503 21.046 35.8503 21.5002C35.8503 21.9544 35.4571 22.3476 35.0029 22.3476H32.0491C31.5949 22.3476 31.2018 21.9544 31.2018 21.5002C31.2018 21.046 31.5949 20.6528 32.0491 20.6528Z" fill="white" stroke="#9FACC4" stroke-width="0.3"/>
<path d="M20.6539 32.0494C20.6539 31.5952 21.0471 31.202 21.5013 31.202C21.9555 31.202 22.3487 31.5952 22.3487 32.0494V35.0031C22.3487 35.4573 21.9555 35.8505 21.5013 35.8505C21.0471 35.8505 20.6539 35.4573 20.6539 35.0031V32.0494Z" fill="white" stroke="#9FACC4" stroke-width="0.3"/>
<path d="M29.5201 28.352L29.5199 28.3522L29.5255 28.3578L31.6353 30.4676C31.9604 30.7926 31.9604 31.3114 31.6353 31.6364C31.3103 31.9615 30.7915 31.9615 30.4665 31.6364L28.3567 29.5266C28.0316 29.2016 28.0316 28.6828 28.3567 28.3578C28.685 28.0295 29.2374 28.0379 29.5201 28.352Z" fill="white" stroke="#9FACC4" stroke-width="0.3"/>
<path d="M20.6539 7.99737C20.6539 7.54317 21.0471 7.15 21.5013 7.15C21.9555 7.15 22.3487 7.54317 22.3487 7.99737V10.9511C22.3487 11.4053 21.9555 11.7985 21.5013 11.7985C21.0471 11.7985 20.6539 11.4053 20.6539 10.9511V7.99737Z" fill="white" stroke="#9FACC4" stroke-width="0.3"/>
<path d="M28.4031 14.6485L28.4033 14.6484L28.3977 14.6428C28.0726 14.3178 28.0726 13.799 28.3977 13.4739L30.5075 11.3641C30.8325 11.0391 31.3513 11.0391 31.6764 11.3641C32.0014 11.6891 32.0014 12.2079 31.6764 12.533L29.5665 14.6428C29.2382 14.9711 28.6858 14.9626 28.4031 14.6485Z" fill="white" stroke="#9FACC4" stroke-width="0.3"/>
<path d="M7.99737 20.6528H10.9511C11.4053 20.6528 11.7985 21.046 11.7985 21.5002C11.7985 21.9544 11.4053 22.3476 10.9511 22.3476H7.99737C7.50855 22.3476 7.15 21.9582 7.15 21.5002C7.15 21.046 7.54317 20.6528 7.99737 20.6528Z" fill="white" stroke="#9FACC4" stroke-width="0.3"/>
<path d="M14.5987 28.352L14.5985 28.3522L14.6041 28.3578C14.9291 28.6828 14.9291 29.2016 14.6041 29.5266L12.4943 31.6364C12.1692 31.9615 11.6504 31.9615 11.3254 31.6364C11.0004 31.3114 11.0004 30.7926 11.3254 30.4676L13.4352 28.3578C13.7635 28.0295 14.316 28.0379 14.5987 28.352Z" fill="white" stroke="#9FACC4" stroke-width="0.3"/>
<path d="M12.4943 11.3641L14.6041 13.4739C14.9291 13.799 14.9291 14.3178 14.6041 14.6428C14.2791 14.9678 13.7603 14.9678 13.4352 14.6428L11.3254 12.533C11.0004 12.2079 11.0004 11.6891 11.3254 11.3641C11.6504 11.0391 12.1692 11.0391 12.4943 11.3641Z" fill="white" stroke="#9FACC4" stroke-width="0.3"/>
</g>
<defs>
<clipPath id="clip0">
<rect width="29" height="29.0006" fill="white" transform="translate(7 7)"/>
</clipPath>
</defs>
</svg>
