<svg width="31" height="21" viewBox="0 0 31 21" fill="none" xmlns="http://www.w3.org/2000/svg">
<path d="M21.2651 18.0729L21.2651 18.0729L21.2653 18.0728C22.0947 17.4756 23.0109 16.8159 24.7999 16.8159C26.5883 16.8159 27.5045 17.4754 28.3341 18.0725L28.3346 18.0729L28.3346 18.0729L28.3407 18.0773C28.7036 18.3386 29.0437 18.5835 29.4536 18.7606C29.8366 18.9261 30.2754 19.0305 30.85 19.0459V20.6063C29.1591 20.5706 28.2712 19.9314 27.4653 19.3511L27.4589 19.3466C27.096 19.0852 26.7559 18.8403 26.3462 18.6632C25.9306 18.4836 25.4493 18.3759 24.7999 18.3759C24.1504 18.3759 23.6691 18.4837 23.2534 18.6633C22.8438 18.8404 22.5038 19.0852 22.1411 19.3464L22.1345 19.3511L22.1345 19.3511L22.1344 19.3512C21.3047 19.9484 20.3885 20.6079 18.5995 20.6079C16.8106 20.6079 15.8944 19.9484 15.065 19.3511L15.0587 19.3466C14.6957 19.0852 14.3556 18.8403 13.9459 18.6632C13.5303 18.4836 13.049 18.3759 12.3996 18.3759C11.7503 18.3759 11.269 18.4836 10.8534 18.6632C10.4434 18.8404 10.1032 19.0855 9.74001 19.3471L9.73443 19.3511C8.90496 19.9484 7.98874 20.6079 6.19991 20.6079C4.41113 20.6079 3.49516 19.9486 2.66554 19.3514L2.66517 19.3512L2.66513 19.3511L2.65918 19.3468C2.29618 19.0853 1.95612 18.8404 1.54631 18.6632C1.16336 18.4977 0.724634 18.3933 0.15 18.3779V16.8175C1.84031 16.8532 2.72816 17.4923 3.53424 18.0725L3.53476 18.0729L3.53478 18.0729L3.5408 18.0773C3.90378 18.3386 4.24388 18.5835 4.6537 18.7606C5.06932 18.9402 5.55061 19.0479 6.19991 19.0479C6.84921 19.0479 7.33049 18.9402 7.74611 18.7606C8.15593 18.5835 8.49604 18.3386 8.85901 18.0773L8.86505 18.0729L8.86523 18.0728C9.69467 17.4756 10.6109 16.8159 12.3996 16.8159C14.1886 16.8159 15.1049 17.4754 15.9343 18.0729L15.9343 18.0729L15.9404 18.0773C16.3034 18.3386 16.6435 18.5835 17.0533 18.7606C17.4689 18.9402 17.9502 19.0479 18.5995 19.0479C19.2489 19.0479 19.7302 18.9402 20.1459 18.7606C20.5557 18.5836 20.8958 18.3388 21.2587 18.0775L21.2651 18.0729Z" fill="#202020" stroke="white" stroke-width="0.3"/>
<path d="M21.2651 7.10077L21.2651 7.10075C22.0946 6.50352 23.0108 5.84397 24.7999 5.84397C26.5886 5.84397 27.5049 6.50348 28.3345 7.1007L28.3346 7.10075L28.3346 7.10076L28.3412 7.10549C28.704 7.3667 29.0439 7.61149 29.4536 7.78855C29.8366 7.95408 30.2753 8.0586 30.85 8.074V9.63442C29.1591 9.59867 28.2712 8.95951 27.4653 8.37898L27.4652 8.37896L27.4585 8.3741C27.0957 8.11294 26.7557 7.86825 26.3462 7.69129C25.9306 7.51171 25.4493 7.40398 24.7999 7.40398C24.1504 7.40398 23.6691 7.51171 23.2534 7.69129C22.8436 7.86837 22.5035 8.11326 22.1405 8.37463L22.1345 8.37896L22.1345 8.37897L22.134 8.37934C21.3044 8.9765 20.3882 9.63599 18.5995 9.63599C16.8106 9.63599 15.8944 8.97644 15.065 8.37898L15.0649 8.37896L15.0582 8.3741C14.6954 8.11294 14.3554 7.86825 13.9459 7.69129C13.5303 7.51171 13.049 7.40398 12.3996 7.40398C11.7503 7.40398 11.269 7.51171 10.8534 7.69129C10.4435 7.86837 10.1034 8.11326 9.74047 8.37462L9.73443 8.37897L9.73425 8.37909C8.90481 8.97631 7.9886 9.63599 6.19991 9.63599C4.41084 9.63599 3.49486 8.97645 2.66515 8.37897L2.66515 8.37897L2.65871 8.37434C2.29589 8.11309 1.95594 7.86831 1.5463 7.69129C1.16336 7.52581 0.724634 7.42135 0.15 7.40596V5.84554C1.84064 5.8813 2.72851 6.5204 3.53469 7.1007L3.53476 7.10075L3.53478 7.10076L3.54136 7.1055C3.90411 7.3667 4.24408 7.6115 4.65368 7.78854C5.0693 7.96819 5.55059 8.07598 6.19991 8.07598C6.84922 8.07598 7.33051 7.96819 7.74613 7.78854C8.15573 7.6115 8.4957 7.36671 8.85845 7.10551L8.86505 7.10075C9.69452 6.50352 10.6107 5.84397 12.3996 5.84397C14.1886 5.84397 15.1049 6.50352 15.9343 7.10075L15.9409 7.1055C16.3037 7.3667 16.6436 7.61149 17.0533 7.78854C17.4689 7.96819 17.9502 8.07598 18.5995 8.07598C19.2489 8.07598 19.7303 7.96819 20.1459 7.78855C20.5555 7.61155 20.8954 7.36685 21.2582 7.10573L21.2651 7.10077Z" fill="#202020" stroke="white" stroke-width="0.3"/>
<path d="M21.2651 12.5868L21.2651 12.5868C22.0946 11.9896 23.0108 11.3301 24.7999 11.3301C26.5886 11.3301 27.5049 11.9896 28.3345 12.5868L28.3346 12.5868L28.3346 12.5868L28.3412 12.5916C28.704 12.8528 29.0439 13.0976 29.4536 13.2746C29.8366 13.4402 30.2753 13.5447 30.85 13.5601V15.1205C29.1592 15.0847 28.2714 14.4455 27.4654 13.8652L27.4652 13.8651L27.4652 13.865L27.4585 13.8602C27.0957 13.599 26.7557 13.3543 26.3462 13.1774C25.9306 12.9978 25.4493 12.8901 24.7999 12.8901C24.1504 12.8901 23.6691 12.9978 23.2534 13.1774C22.8436 13.3545 22.5035 13.5993 22.1405 13.8607L22.1345 13.865L22.1345 13.8651L22.134 13.8654C21.3044 14.4626 20.3882 15.1221 18.5995 15.1221C16.8108 15.1221 15.8946 14.4624 15.0651 13.8652L15.065 13.8651L15.0649 13.865L15.0582 13.8602C14.6954 13.599 14.3554 13.3543 13.9459 13.1774C13.5303 12.9978 13.049 12.8901 12.3996 12.8901C11.7503 12.8901 11.269 12.9978 10.8534 13.1774C10.4435 13.3545 10.1034 13.5993 9.74047 13.8607L9.73443 13.8651L9.73425 13.8652C8.90481 14.4624 7.9886 15.1221 6.19991 15.1221C4.41147 15.1221 3.49551 14.4628 2.66599 13.8657L2.66515 13.8651L2.66513 13.865L2.65871 13.8604C2.29589 13.5992 1.95594 13.3544 1.5463 13.1774C1.16336 13.0119 0.724634 12.9074 0.15 12.892V11.3316C1.84064 11.3674 2.72851 12.0065 3.53469 12.5868L3.53476 12.5868L3.53478 12.5868L3.54136 12.5916C3.90411 12.8528 4.24408 13.0976 4.65368 13.2746C5.0693 13.4543 5.55059 13.5621 6.19991 13.5621C6.84922 13.5621 7.33051 13.4543 7.74613 13.2746C8.15573 13.0976 8.4957 12.8528 8.85845 12.5916L8.86505 12.5868C9.69452 11.9896 10.6107 11.3301 12.3996 11.3301C14.1886 11.3301 15.1049 11.9896 15.9343 12.5868L15.9409 12.5916C16.3037 12.8528 16.6436 13.0976 17.0533 13.2746C17.4689 13.4543 17.9502 13.5621 18.5995 13.5621C19.2489 13.5621 19.7303 13.4543 20.1459 13.2746C20.5555 13.0976 20.8954 12.8529 21.2582 12.5918L21.2651 12.5868Z" fill="#202020" stroke="white" stroke-width="0.3"/>
<path d="M21.2651 1.61492L21.2651 1.61489C22.0946 1.01744 23.0108 0.357886 24.7999 0.357886C26.5887 0.357886 27.5049 1.01743 28.3346 1.61491L28.4223 1.49318L28.3346 1.61491L28.3406 1.61925C28.7036 1.88062 29.0437 2.12551 29.4536 2.30259C29.8366 2.46807 30.2754 2.57253 30.85 2.58792V4.14834C29.1591 4.11258 28.2712 3.47343 27.4653 2.8929L27.4652 2.89287L27.4585 2.88802C27.0957 2.62686 26.7557 2.38217 26.3462 2.20521C25.9306 2.02562 25.4493 1.9179 24.7999 1.9179C24.1504 1.9179 23.6691 2.02562 23.2534 2.2052C22.8436 2.38228 22.5035 2.62718 22.1405 2.88854L22.1345 2.89288L22.2221 3.01461L22.1345 2.89289C21.3048 3.49036 20.3886 4.14991 18.5995 4.14991C16.8106 4.14991 15.8944 3.49036 15.065 2.8929L15.0649 2.89287L15.0582 2.88802C14.6954 2.62686 14.3554 2.38217 13.9459 2.20521C13.5303 2.02562 13.049 1.9179 12.3996 1.9179C11.7503 1.9179 11.269 2.02562 10.8534 2.20521C10.4435 2.38228 10.1034 2.62718 9.74047 2.88854L9.73443 2.89288L9.7344 2.8929C8.90495 3.49036 7.98874 4.14991 6.19991 4.14991C4.41084 4.14991 3.49486 3.49036 2.66515 2.89289L2.66515 2.89288L2.65871 2.88825C2.29589 2.627 1.95594 2.38222 1.5463 2.20521C1.16336 2.03973 0.724634 1.93527 0.15 1.91987V0.359458C1.84069 0.395219 2.72856 1.03437 3.53475 1.61491L3.53476 1.61491L3.5408 1.61926C3.90378 1.88062 4.24388 2.12551 4.6537 2.30259C5.06932 2.48217 5.55061 2.5899 6.19991 2.5899C6.84921 2.5899 7.33049 2.48217 7.74611 2.30259C8.15593 2.12551 8.49604 1.88062 8.85901 1.61926L8.86505 1.61491L8.86508 1.61489C9.69453 1.01744 10.6107 0.357886 12.3996 0.357886C14.1886 0.357886 15.1049 1.01744 15.9343 1.61489L15.9343 1.61491L15.9404 1.61926C16.3033 1.88062 16.6435 2.12551 17.0533 2.30259C17.4689 2.48217 17.9502 2.5899 18.5995 2.5899C19.2489 2.5899 19.7302 2.48217 20.1459 2.30259C20.5557 2.12557 20.8958 1.88077 21.2587 1.6195L21.2651 1.61492Z" fill="#202020" stroke="white" stroke-width="0.3"/>
</svg>
