<svg width="98" height="98" viewBox="0 0 98 98" fill="none" xmlns="http://www.w3.org/2000/svg">
<g clip-path="url(#clip0)">
<path d="M65.5572 32.4428L65.5631 32.4487L65.5691 32.4545C69.8835 36.6457 72.4796 42.5705 72.4796 49C72.4796 55.4158 69.7634 61.3509 65.5572 65.5572L65.5513 65.5631L65.5455 65.5691C61.3543 69.8835 55.4295 72.4796 49 72.4796C42.5842 72.4796 36.6491 69.7634 32.4428 65.5572C28.2365 61.3509 25.5204 55.4158 25.5204 49C25.5204 42.5842 28.2365 36.6491 32.4428 32.4428L32.4487 32.4369L32.4545 32.4309C36.6457 28.1164 42.5705 25.5204 49 25.5204C55.4158 25.5204 61.3509 28.2365 65.5572 32.4428ZM49 68.0389C54.2299 68.0389 59.0598 65.9739 62.5169 62.5169C65.9739 59.0598 68.0389 54.2299 68.0389 49C68.0389 43.77 65.9739 38.9402 62.5169 35.4831C59.0598 32.026 54.2299 29.9611 49 29.9611C43.77 29.9611 38.9402 32.026 35.4831 35.4831C32.026 38.9402 29.9611 43.77 29.9611 49C29.9611 54.2299 32.026 59.0598 35.4831 62.5169C38.9402 65.9739 43.77 68.0389 49 68.0389Z" fill="#BDDB3C" stroke="white" stroke-width="2.3"/>
<path d="M84.6484 46.7796H94.6299C95.8096 46.7796 96.8503 47.8203 96.8503 49C96.8503 50.1797 95.8096 51.2204 94.6299 51.2204H84.6484C83.4688 51.2204 82.4281 50.1797 82.4281 49C82.4281 47.8203 83.4688 46.7796 84.6484 46.7796Z" fill="#BDDB3C" stroke="white" stroke-width="2.3"/>
<path d="M46.7798 84.6482C46.7798 83.4685 47.8204 82.4278 49.0001 82.4278C50.1798 82.4278 51.2205 83.4685 51.2205 84.6482V94.6297C51.2205 95.8094 50.1798 96.8501 49.0001 96.8501C47.8204 96.8501 46.7798 95.8094 46.7798 94.6297V84.6482Z" fill="#BDDB3C" stroke="white" stroke-width="2.3"/>
<path d="M75.6266 72.5841L75.6469 72.6065L75.6682 72.6279L82.7979 79.7576C83.6451 80.6047 83.6451 81.9507 82.7979 82.7979C81.9507 83.6451 80.6047 83.6451 79.7576 82.7979L72.6279 75.6682C71.7807 74.821 71.7807 73.4751 72.6279 72.6279C73.5003 71.7556 74.9394 71.8205 75.6266 72.5841Z" fill="#BDDB3C" stroke="white" stroke-width="2.3"/>
<path d="M46.7798 3.37037C46.7798 2.19068 47.8204 1.15 49.0001 1.15C50.1798 1.15 51.2205 2.19068 51.2205 3.37037V13.3519C51.2205 14.5315 50.1798 15.5722 49.0001 15.5722C47.8204 15.5722 46.7798 14.5315 46.7798 13.3519V3.37037Z" fill="#BDDB3C" stroke="white" stroke-width="2.3"/>
<path d="M72.7992 25.416L72.7789 25.3935L72.7576 25.3721C71.9104 24.5249 71.9104 23.179 72.7576 22.3318L79.8872 15.2021C80.7344 14.3549 82.0803 14.3549 82.9275 15.2021C83.7747 16.0493 83.7747 17.3953 82.9275 18.2425L75.7979 25.3721C74.9255 26.2444 73.4864 26.1795 72.7992 25.416Z" fill="#BDDB3C" stroke="white" stroke-width="2.3"/>
<path d="M3.37037 46.7796H13.3519C14.5315 46.7796 15.5722 47.8203 15.5722 49C15.5722 50.1797 14.5315 51.2204 13.3519 51.2204H3.37037C2.08977 51.2204 1.15 50.2088 1.15 49C1.15 47.8203 2.19068 46.7796 3.37037 46.7796Z" fill="#BDDB3C" stroke="white" stroke-width="2.3"/>
<path d="M25.2008 72.5841L25.2211 72.6065L25.2425 72.6279C26.0897 73.4751 26.0897 74.821 25.2425 75.6682L18.1128 82.7979C17.2656 83.6451 15.9197 83.6451 15.0725 82.7979C14.2253 81.9507 14.2253 80.6047 15.0725 79.7576L22.2021 72.6279C23.0745 71.7556 24.5136 71.8205 25.2008 72.5841Z" fill="#BDDB3C" stroke="white" stroke-width="2.3"/>
<path d="M18.1128 15.2021L25.2425 22.3318C26.0897 23.179 26.0897 24.5249 25.2425 25.3721C24.3953 26.2193 23.0493 26.2193 22.2021 25.3721L15.0725 18.2425C14.2253 17.3953 14.2253 16.0493 15.0725 15.2021C15.9197 14.3549 17.2656 14.3549 18.1128 15.2021Z" fill="#BDDB3C" stroke="white" stroke-width="2.3"/>
</g>
<defs>
<clipPath id="clip0">
<rect width="98" height="98" fill="white"/>
</clipPath>
</defs>
</svg>
