<svg width="80" height="91" viewBox="0 0 80 91" fill="none" xmlns="http://www.w3.org/2000/svg">
<g clip-path="url(#clip0)">
<path d="M24.1724 12.9029L24.1725 12.9028C25.6082 11.0237 26.8431 9.5393 27.8453 8.4794C29.3279 6.91148 30.2585 6.2936 31.2719 6.2936C32.2853 6.2936 33.2159 6.91147 34.6985 8.47959L35.4978 7.72387L34.6986 8.4796C35.7007 9.53949 36.9354 11.0238 38.3715 12.9029C41.3994 16.8656 44.8054 21.8988 47.9572 27.0725L48.8966 26.5002L47.9572 27.0725C50.443 31.1527 53.7612 36.9619 56.4545 42.949C59.165 48.9744 61.1721 55.0303 61.1721 59.6522C61.1721 76.3414 47.7464 89.8998 31.2717 89.8998C14.797 89.8998 1.3713 76.3414 1.3713 59.6522C1.3713 55.0302 3.37845 48.9743 6.08894 42.9489C8.78221 36.9619 12.1004 31.1528 14.5862 27.0725C17.7382 21.8988 21.1443 16.8654 24.1724 12.9029ZM32.0858 11.5353L31.2719 10.6402L30.4581 11.5353C27.911 14.3366 22.5734 21.4409 17.0405 30.7262C13.3523 36.9157 10.4383 42.6289 8.44293 47.5312C6.45942 52.4043 5.34074 56.5778 5.34074 59.6522C5.34074 74.0935 16.9609 85.8615 31.2719 85.8615C45.5827 85.8615 57.2031 74.0935 57.2031 59.6522C57.2031 56.5778 56.0844 52.4044 54.1009 47.5313C52.1055 42.629 49.1916 36.9158 45.5033 30.7262C39.9704 21.4407 34.6327 14.3364 32.0858 11.5353Z" fill="#BDDB3C" stroke="white" stroke-width="2.2"/>
</g>
<defs>
<clipPath id="clip0">
<rect width="80" height="90.5263" fill="white" transform="translate(0 0.473633)"/>
</clipPath>
</defs>
</svg>
