<svg width="85" height="85" viewBox="0 0 85 85" fill="none" xmlns="http://www.w3.org/2000/svg">
<g clip-path="url(#clip0)">
<path d="M41.2313 61.3212V62.2556H40.2969H12.2643H11.3298V61.3212V33.2886V32.3542H12.2643H40.2969H41.2313V33.2886V61.3212ZM9.6362 65.6429H42.9249C43.8595 65.6429 44.6186 64.8839 44.6186 63.9493V30.6605C44.6186 29.7259 43.8595 28.9669 42.9249 28.9669H9.6362C8.70157 28.9669 7.94256 29.7259 7.94256 30.6605V63.9493C7.94256 64.8839 8.70158 65.6429 9.6362 65.6429Z" fill="#BDDB3C" stroke="white" stroke-width="1.86884"/>
<path d="M28.967 40.2967V41.2312H28.0326H24.5285H23.5941V40.2967V33.2886V32.3542H24.5285H28.0326H28.967V33.2886V40.2967ZM21.9005 44.6184H30.6606C31.5953 44.6184 32.3543 43.8594 32.3543 42.9248V30.6605C32.3543 29.7259 31.5953 28.9669 30.6606 28.9669H21.9005C20.9658 28.9669 20.2068 29.7259 20.2068 30.6605V42.9248C20.2068 43.8594 20.9658 44.6184 21.9005 44.6184Z" fill="#BDDB3C" stroke="white" stroke-width="1.86884"/>
<path d="M58.7519 12.2643V13.1987H57.8175H54.3134H53.379V12.2643V5.25611V4.32169H54.3134H57.8175H58.7519V5.25611V12.2643ZM51.6854 16.586H60.4456C61.3802 16.586 62.1392 15.8269 62.1392 14.8923V2.62806C62.1392 1.69344 61.3802 0.934421 60.4456 0.934421H51.6854C50.7507 0.934421 49.9917 1.69344 49.9917 2.62806V14.8923C49.9917 15.8269 50.7507 16.586 51.6854 16.586Z" fill="#BDDB3C" stroke="white" stroke-width="1.86884"/>
<path d="M16.586 77.0896V76.1552H17.5204H66.5775H67.5119V77.0896V81.4697C67.5119 82.4044 68.271 83.1634 69.2056 83.1634H81.4698C82.4045 83.1634 83.1635 82.4044 83.1635 81.4697V63.9493C83.1635 63.0147 82.4045 62.2557 81.4698 62.2557H2.62811C1.69348 62.2557 0.934464 63.0147 0.934464 63.9493V81.4697C0.934464 82.4044 1.69348 83.1634 2.62811 83.1634H14.8924C15.827 83.1634 16.586 82.4044 16.586 81.4697V77.0896ZM13.1987 78.8417V79.7761H12.2643H5.25616H4.32175V78.8417V66.5774V65.643H5.25616H78.8418H79.7762V66.5774V78.8417V79.7761H78.8418H71.8336H70.8992V78.8417V74.4616C70.8992 73.527 70.1402 72.7679 69.2056 72.7679H14.8924C13.9578 72.7679 13.1987 73.527 13.1987 74.4616V78.8417Z" fill="#BDDB3C" stroke="white" stroke-width="1.86884"/>
<path d="M39.3624 5.25612V4.3217H40.2968H71.8335H72.7679V5.25612V63.9494C72.7679 64.884 73.5269 65.6431 74.4615 65.6431C75.3962 65.6431 76.1552 64.884 76.1552 63.9494V2.62806C76.1552 1.69344 75.3962 0.934421 74.4615 0.934421H37.6687C36.7341 0.934421 35.9751 1.69344 35.9751 2.62806V30.6607C35.9751 31.5953 36.7341 32.3543 37.6687 32.3543C38.6034 32.3543 39.3624 31.5953 39.3624 30.6607V5.25612Z" fill="#BDDB3C" stroke="white" stroke-width="1.86884"/>
<rect x="18.6884" y="29.9016" width="23.3281" height="1.52982" fill="#BDDB3C"/>
<rect x="57.71" y="63.178" width="23.3281" height="1.52982" fill="#BDDB3C"/>
<rect x="10.3918" y="47.3052" width="16.8682" height="1.51613" transform="rotate(90 10.3918 47.3052)" fill="#BDDB3C"/>
<rect x="43.6761" y="47.3052" width="16.8682" height="1.51613" transform="rotate(90 43.6761 47.3052)" fill="#BDDB3C"/>
<rect x="52.4388" y="2.13403" width="9.38093" height="1.51613" transform="rotate(90 52.4388 2.13403)" fill="#BDDB3C"/>
<rect x="61.203" y="2.13403" width="9.38093" height="1.51613" transform="rotate(90 61.203 2.13403)" fill="#BDDB3C"/>
</g>
<defs>
<clipPath id="clip0">
<rect width="84.0979" height="84.0979" fill="white" transform="matrix(-1 0 0 1 84.0977 0)"/>
</clipPath>
</defs>
</svg>
